<?xml version="1.0" encoding="UTF-8"?>
<svg id="Layer_1" data-name="Layer 1" xmlns="http://www.w3.org/2000/svg" viewBox="0 0 273.13 92.43">
  <defs>
    <style>
      .cls-1 {
        fill: #2a292f;
      }

      .cls-2 {
        fill: #c3202e;
      }
    </style>
  </defs>
  <g>
    <g>
      <g>
        <path class="cls-2" d="M18.86.5l9.97,21.68L38.85.5h18.43v33.4h-10.07l.25-24.98h-1.71l-12.64,24.98h-8.51L11.96,8.91h-1.81l.25,24.98H.33V.5h18.53Z"/>
        <path class="cls-2" d="M72.02.5l10.92,13.37L93.42.5h13.34l-18.37,21.58v11.82h-10.57v-11.82L58.58.5h13.44Z"/>
        <path class="cls-1" d="M116.52,22.83c0,2,.2,2.65,1.01,3.15.96.6,2.06.7,9.26.7,7.75,0,8.91-.05,9.87-.45.76-.35,1.11-1.1,1.11-2.5,0-2-.81-2.5-4.08-2.55-1.11,0-4.43-.15-8-.3-3.68-.2-7.1-.35-8.16-.35-4.88-.15-7.25-.85-8.76-2.55-1.26-1.5-1.86-3.66-1.86-7.01,0-4.96,1.16-7.96,3.52-9.26,2.62-1.4,5.54-1.7,17.67-1.7,9.36,0,12.89.45,15.3,1.85,2.17,1.35,3.07,3.5,3.07,7.61,0,.2,0,.9-.05,1.55h-9.87c-.05-1.65-.2-2.1-.75-2.6-.81-.65-1.96-.75-9.67-.75-8.61,0-9.31.2-9.31,2.65,0,1.2.45,1.85,1.41,2.15.91.25,3.52.4,10.87.6,10.82.3,13.09.6,15.2,1.85,2.47,1.45,3.37,3.71,3.37,8.51,0,5.66-1.31,8.51-4.58,9.81-2.06.85-6.19,1.15-16.56,1.15s-14.2-.45-16.61-1.8c-2.52-1.4-3.32-3.4-3.32-8.16v-1.6h9.92Z"/>
        <path class="cls-1" d="M189.92.5v8.51h-14.95v24.88h-10.72V9.01h-14.95V.5h40.63Z"/>
        <path class="cls-1" d="M229.43.5v7.86h-27.08v4.86h25.73v7.36h-25.73v5.31h27.29v8.01h-37.35V.5h37.15Z"/>
        <path class="cls-1" d="M232.86.5h23.01c6.04,0,7.05.05,8.76.25,6.65.9,8.51,3.55,8.51,12.27,0,7.26-1.26,10.16-5.14,11.67-2.27.85-4.58,1.05-12.03,1.05h-12.89v8.16h-10.22V.5ZM255.86,17.37c4.63-.05,4.83-.05,5.69-.5,1.01-.55,1.36-1.5,1.36-3.86s-.4-3.3-1.66-3.81c-.7-.3-.8-.3-5.39-.35h-12.79v8.51h12.79Z"/>
      </g>
      <rect class="cls-2" x=".34" y="45.13" width="106.38" height="2.43"/>
    </g>
    <g>
      <path class="cls-1" d="M121.86,45.86c.55.46.83,1.1.83,1.9s-.28,1.44-.83,1.9c-.55.46-1.31.69-2.28.69h-2.04v2.39h-.8v-7.57h2.85c.97,0,1.73.23,2.28.69ZM121.29,49.15c.4-.33.6-.79.6-1.39s-.2-1.08-.6-1.41-.97-.49-1.73-.49h-2.02v3.78h2.02c.75,0,1.33-.16,1.73-.49Z"/>
      <path class="cls-1" d="M129.9,52.73l-1.74-2.43c-.2.02-.4.03-.61.03h-2.04v2.4h-.8v-7.57h2.85c.97,0,1.73.23,2.28.69.55.46.83,1.1.83,1.9,0,.59-.15,1.09-.45,1.5-.3.41-.73.7-1.29.88l1.86,2.59h-.88ZM129.25,49.16c.4-.33.6-.8.6-1.39s-.2-1.08-.6-1.41-.97-.49-1.73-.49h-2.02v3.79h2.02c.75,0,1.33-.17,1.73-.5Z"/>
      <path class="cls-1" d="M134.11,52.3c-.61-.34-1.09-.79-1.43-1.38-.34-.58-.52-1.24-.52-1.97s.17-1.38.52-1.97c.34-.58.82-1.04,1.43-1.38.61-.34,1.3-.5,2.05-.5s1.43.17,2.04.5c.61.33,1.08.79,1.43,1.38.35.59.52,1.24.52,1.97s-.17,1.39-.52,1.97c-.35.59-.82,1.05-1.43,1.38-.61.33-1.28.5-2.04.5s-1.44-.17-2.05-.5ZM137.79,51.68c.49-.27.87-.64,1.14-1.12.28-.48.41-1.01.41-1.61s-.14-1.13-.41-1.61c-.28-.48-.66-.85-1.14-1.12-.49-.27-1.03-.4-1.63-.4s-1.15.13-1.64.4c-.49.27-.87.65-1.15,1.12-.28.48-.42,1.02-.42,1.61s.14,1.13.42,1.61.66.85,1.15,1.12,1.03.41,1.64.41,1.14-.14,1.63-.41Z"/>
      <path class="cls-1" d="M143.03,45.86v2.97h3.94v.69h-3.94v3.21h-.8v-7.57h5.22v.69h-4.41Z"/>
      <path class="cls-1" d="M154.75,52.04v.69h-5.38v-7.57h5.22v.69h-4.41v2.69h3.94v.68h-3.94v2.81h4.58Z"/>
      <path class="cls-1" d="M157.39,52.53c-.52-.18-.92-.42-1.2-.71l.32-.62c.28.27.64.5,1.1.67.46.17.93.25,1.41.25.68,0,1.19-.12,1.53-.37.34-.25.51-.57.51-.97,0-.3-.09-.54-.28-.72-.18-.18-.41-.32-.68-.42-.27-.1-.64-.2-1.12-.32-.57-.14-1.03-.28-1.37-.42-.34-.13-.63-.34-.88-.61-.24-.27-.36-.64-.36-1.11,0-.38.1-.73.3-1.04.2-.31.51-.56.94-.75.42-.19.94-.28,1.56-.28.44,0,.86.06,1.28.18.42.12.78.28,1.08.49l-.27.64c-.32-.21-.66-.37-1.02-.47-.36-.1-.72-.16-1.07-.16-.67,0-1.17.13-1.51.38-.34.26-.51.59-.51.99,0,.3.09.55.28.73.18.18.42.32.7.42.28.1.65.2,1.13.32.56.14,1.01.27,1.35.4.34.13.64.34.87.61.24.27.36.64.36,1.1,0,.38-.1.73-.31,1.04-.21.31-.52.56-.95.75-.43.18-.95.28-1.58.28-.57,0-1.11-.09-1.63-.27Z"/>
      <path class="cls-1" d="M164.35,52.53c-.52-.18-.92-.42-1.2-.71l.32-.62c.28.27.64.5,1.1.67.46.17.93.25,1.41.25.68,0,1.19-.12,1.53-.37.34-.25.51-.57.51-.97,0-.3-.09-.54-.28-.72-.18-.18-.41-.32-.68-.42-.27-.1-.64-.2-1.12-.32-.57-.14-1.03-.28-1.37-.42-.34-.13-.63-.34-.88-.61-.24-.27-.36-.64-.36-1.11,0-.38.1-.73.3-1.04.2-.31.51-.56.94-.75.42-.19.94-.28,1.56-.28.44,0,.86.06,1.28.18.42.12.78.28,1.08.49l-.27.64c-.32-.21-.66-.37-1.02-.47-.36-.1-.72-.16-1.07-.16-.67,0-1.17.13-1.51.38-.34.26-.51.59-.51.99,0,.3.09.55.28.73.18.18.42.32.7.42.28.1.65.2,1.13.32.56.14,1.01.27,1.35.4.34.13.64.34.87.61.24.27.36.64.36,1.1,0,.38-.1.73-.31,1.04-.21.31-.52.56-.95.75-.43.18-.95.28-1.58.28-.57,0-1.11-.09-1.63-.27Z"/>
      <path class="cls-1" d="M170.83,45.17h.8v7.57h-.8v-7.57Z"/>
      <path class="cls-1" d="M175.66,52.3c-.61-.34-1.09-.79-1.43-1.38-.34-.58-.52-1.24-.52-1.97s.17-1.38.52-1.97c.34-.58.82-1.04,1.43-1.38.61-.34,1.3-.5,2.05-.5s1.43.17,2.04.5,1.08.79,1.43,1.38c.35.59.52,1.24.52,1.97s-.17,1.39-.52,1.97c-.35.59-.82,1.05-1.43,1.38-.61.33-1.28.5-2.04.5s-1.44-.17-2.05-.5ZM179.34,51.68c.49-.27.87-.64,1.14-1.12.28-.48.41-1.01.41-1.61s-.14-1.13-.41-1.61c-.28-.48-.66-.85-1.14-1.12-.49-.27-1.03-.4-1.63-.4s-1.15.13-1.64.4c-.49.27-.87.65-1.15,1.12-.28.48-.42,1.02-.42,1.61s.14,1.13.42,1.61c.28.48.66.85,1.15,1.12.49.27,1.03.41,1.64.41s1.14-.14,1.63-.41Z"/>
      <path class="cls-1" d="M190.14,45.17v7.57h-.66l-4.89-6.14v6.14h-.8v-7.57h.66l4.9,6.14v-6.14h.79Z"/>
      <path class="cls-1" d="M197.66,50.71h-4.24l-.91,2.02h-.84l3.48-7.57h.79l3.48,7.57h-.85l-.91-2.02ZM197.36,50.06l-1.83-4.06-1.83,4.06h3.65Z"/>
      <path class="cls-1" d="M200.95,45.17h.8v6.88h4.26v.69h-5.07v-7.57Z"/>
      <path class="cls-1" d="M211.55,45.86v2.97h3.94v.69h-3.94v3.21h-.8v-7.57h5.22v.69h-4.41Z"/>
      <path class="cls-1" d="M217.9,45.17h.8v6.88h4.26v.69h-5.07v-7.57Z"/>
      <path class="cls-1" d="M225.7,52.3c-.61-.34-1.09-.79-1.43-1.38-.34-.58-.52-1.24-.52-1.97s.17-1.38.52-1.97c.34-.58.82-1.04,1.43-1.38.61-.34,1.3-.5,2.05-.5s1.43.17,2.04.5,1.08.79,1.43,1.38c.35.59.52,1.24.52,1.97s-.17,1.39-.52,1.97c-.35.59-.82,1.05-1.43,1.38-.61.33-1.28.5-2.04.5s-1.44-.17-2.05-.5ZM229.38,51.68c.49-.27.87-.64,1.14-1.12.28-.48.41-1.01.41-1.61s-.14-1.13-.41-1.61c-.28-.48-.66-.85-1.14-1.12-.49-.27-1.03-.4-1.63-.4s-1.15.13-1.64.4c-.49.27-.87.65-1.15,1.12-.28.48-.42,1.02-.42,1.61s.14,1.13.42,1.61.66.85,1.15,1.12c.49.27,1.03.41,1.64.41s1.14-.14,1.63-.41Z"/>
      <path class="cls-1" d="M235.09,52.3c-.61-.34-1.09-.79-1.43-1.38-.34-.58-.52-1.24-.52-1.97s.17-1.38.52-1.97c.34-.58.82-1.04,1.43-1.38.61-.34,1.3-.5,2.05-.5s1.43.17,2.04.5c.61.33,1.08.79,1.43,1.38.35.59.52,1.24.52,1.97s-.17,1.39-.52,1.97-.82,1.05-1.43,1.38c-.61.33-1.28.5-2.04.5s-1.44-.17-2.05-.5ZM238.77,51.68c.49-.27.87-.64,1.14-1.12.28-.48.41-1.01.41-1.61s-.14-1.13-.41-1.61c-.28-.48-.66-.85-1.14-1.12-.49-.27-1.03-.4-1.63-.4s-1.15.13-1.64.4c-.49.27-.87.65-1.15,1.12-.28.48-.42,1.02-.42,1.61s.14,1.13.42,1.61c.28.48.66.85,1.15,1.12s1.03.41,1.64.41,1.14-.14,1.63-.41Z"/>
      <path class="cls-1" d="M248.4,52.73l-1.74-2.43c-.2.02-.4.03-.61.03h-2.04v2.4h-.8v-7.57h2.85c.97,0,1.73.23,2.28.69.55.46.83,1.1.83,1.9,0,.59-.15,1.09-.45,1.5-.3.41-.73.7-1.29.88l1.86,2.59h-.88ZM247.76,49.16c.4-.33.6-.8.6-1.39s-.2-1.08-.6-1.41c-.4-.33-.97-.49-1.73-.49h-2.02v3.79h2.02c.75,0,1.33-.17,1.73-.5Z"/>
      <path class="cls-1" d="M251.34,45.17h.8v7.57h-.8v-7.57Z"/>
      <path class="cls-1" d="M261.25,45.17v7.57h-.66l-4.89-6.14v6.14h-.8v-7.57h.66l4.9,6.14v-6.14h.79Z"/>
      <path class="cls-1" d="M269.36,48.95h.77v2.89c-.35.31-.77.55-1.26.71-.49.17-1,.25-1.53.25-.76,0-1.45-.17-2.05-.5-.61-.33-1.09-.79-1.43-1.38-.35-.59-.52-1.24-.52-1.97s.17-1.39.52-1.97c.35-.59.83-1.05,1.43-1.38s1.3-.5,2.07-.5c.58,0,1.11.09,1.6.28s.9.46,1.23.82l-.5.51c-.6-.59-1.37-.89-2.29-.89-.62,0-1.17.13-1.67.4-.5.27-.89.65-1.17,1.12-.28.48-.42,1.02-.42,1.61s.14,1.12.42,1.6c.28.48.67.85,1.16,1.12.49.27,1.05.41,1.66.41.78,0,1.45-.19,1.99-.58v-2.55Z"/>
    </g>
  </g>
  <g>
    <path class="cls-1" d="M19.1,67.27v20.85h-4.82v-16.91H4.82v16.91H0v-20.85h19.1Z"/>
    <path class="cls-1" d="M28.43,87.07c-1.75-.93-3.11-2.22-4.1-3.86-.99-1.64-1.48-3.48-1.48-5.52s.5-3.89,1.48-5.52c.99-1.64,2.36-2.92,4.1-3.86,1.75-.93,3.71-1.4,5.88-1.4s4.13.47,5.87,1.4c1.74.93,3.1,2.22,4.1,3.86,1,1.64,1.5,3.48,1.5,5.52s-.5,3.89-1.5,5.52c-1,1.64-2.37,2.92-4.1,3.86-1.74.93-3.69,1.4-5.87,1.4s-4.14-.47-5.88-1.4ZM37.67,83.51c1-.57,1.78-1.36,2.35-2.37.57-1.01.85-2.16.85-3.45s-.28-2.44-.85-3.46c-.57-1.01-1.35-1.8-2.35-2.37-1-.57-2.12-.85-3.35-.85s-2.36.28-3.35.85c-1,.57-1.78,1.35-2.35,2.37-.57,1.01-.85,2.16-.85,3.46s.28,2.44.85,3.45c.57,1.01,1.35,1.8,2.35,2.37,1,.57,2.12.85,3.35.85s2.36-.28,3.35-.85Z"/>
    <path class="cls-1" d="M67.61,67.27v20.85h-4.79v-16.91h-7.19l-.15,4.35c-.1,2.96-.34,5.36-.72,7.19-.38,1.84-1.01,3.25-1.9,4.23-.89.98-2.13,1.47-3.73,1.47-.66,0-1.46-.11-2.4-.33l.3-4.08c.26.08.55.12.87.12,1.16,0,1.97-.68,2.43-2.04.46-1.36.75-3.49.87-6.39l.3-8.46h16.11Z"/>
    <path class="cls-1" d="M102.94,84.18v8.25h-4.49v-4.32h-14.79v4.32h-4.49l.03-8.25h.84c1.26-.04,2.15-.95,2.66-2.74.52-1.79.84-4.34.96-7.65l.24-6.52h16.11v16.91h2.93ZM87.31,80.48c-.32,1.68-.81,2.91-1.47,3.71h9.37v-12.98h-7.19l-.09,3.04c-.1,2.48-.31,4.56-.63,6.24Z"/>
    <path class="cls-1" d="M124.89,67.27v20.85h-4.79v-16.91h-7.19l-.15,4.35c-.1,2.96-.34,5.36-.72,7.19-.38,1.84-1.01,3.25-1.9,4.23-.89.98-2.13,1.47-3.73,1.47-.66,0-1.46-.11-2.4-.33l.3-4.08c.26.08.55.12.87.12,1.16,0,1.97-.68,2.43-2.04.46-1.36.75-3.49.87-6.39l.3-8.46h16.11Z"/>
    <path class="cls-1" d="M146.86,67.27v20.85h-4.79v-5.54h-4.43l-3.71,5.54h-5.12l4.37-6.28c-1.42-.58-2.51-1.44-3.26-2.61-.76-1.16-1.14-2.56-1.14-4.18s.37-2.99,1.11-4.15c.74-1.16,1.79-2.05,3.14-2.68,1.36-.63,2.95-.94,4.79-.94h9.04ZM134.78,72.15c-.73.64-1.09,1.58-1.09,2.83s.35,2.14,1.05,2.8c.7.66,1.73.98,3.08.98h4.25v-7.56h-4.13c-1.38,0-2.43.32-3.16.95Z"/>
    <path class="cls-1" d="M164.69,87.09c-1.73-.92-3.08-2.2-4.07-3.84-.99-1.64-1.48-3.49-1.48-5.55s.49-3.92,1.48-5.55c.99-1.64,2.35-2.92,4.07-3.84s3.67-1.38,5.82-1.38c1.82,0,3.46.32,4.93.95,1.47.64,2.7,1.55,3.7,2.74l-3.11,2.86c-1.42-1.63-3.17-2.44-5.27-2.44-1.3,0-2.45.28-3.47.85-1.02.57-1.81,1.35-2.38,2.37-.57,1.01-.85,2.16-.85,3.46s.28,2.44.85,3.45c.57,1.01,1.36,1.8,2.38,2.37,1.02.57,2.18.85,3.47.85,2.1,0,3.85-.82,5.27-2.47l3.11,2.86c-1,1.21-2.24,2.13-3.71,2.77-1.48.63-3.12.95-4.94.95-2.14,0-4.07-.46-5.79-1.38Z"/>
    <path class="cls-1" d="M199.77,79.09c.68.85,1.02,1.91,1.02,3.16,0,1.85-.7,3.29-2.11,4.32-1.41,1.03-3.42,1.55-6.03,1.55h-10.33v-20.85h9.76c2.44,0,4.33.47,5.69,1.4,1.36.93,2.04,2.26,2.04,3.99,0,1.03-.26,1.94-.78,2.72-.52.78-1.25,1.4-2.19,1.86,1.28.38,2.26.99,2.93,1.85ZM187.14,75.91h4.52c1.06,0,1.86-.21,2.4-.64.54-.43.81-1.06.81-1.89s-.27-1.44-.82-1.88c-.55-.44-1.34-.66-2.38-.66h-4.52v5.06ZM195.88,81.86c0-1.73-1.14-2.59-3.41-2.59h-5.33v5.27h5.33c2.28,0,3.41-.89,3.41-2.68Z"/>
    <path class="cls-1" d="M208.74,87.07c-1.75-.93-3.11-2.22-4.1-3.86-.99-1.64-1.48-3.48-1.48-5.52s.5-3.89,1.48-5.52c.99-1.64,2.36-2.92,4.1-3.86,1.75-.93,3.71-1.4,5.88-1.4s4.13.47,5.87,1.4c1.74.93,3.1,2.22,4.1,3.86,1,1.64,1.5,3.48,1.5,5.52s-.5,3.89-1.5,5.52c-1,1.64-2.37,2.92-4.1,3.86-1.74.93-3.69,1.4-5.87,1.4s-4.14-.47-5.88-1.4ZM217.98,83.51c1-.57,1.78-1.36,2.35-2.37.57-1.01.85-2.16.85-3.45s-.28-2.44-.85-3.46c-.57-1.01-1.35-1.8-2.35-2.37-1-.57-2.12-.85-3.35-.85s-2.36.28-3.35.85c-1,.57-1.78,1.35-2.35,2.37-.57,1.01-.85,2.16-.85,3.46s.28,2.44.85,3.45c.57,1.01,1.35,1.8,2.35,2.37,1,.57,2.12.85,3.35.85s2.36-.28,3.35-.85Z"/>
    <path class="cls-1" d="M229.83,67.27h4.82v13.58l10-13.58h4.55v20.85h-4.79v-13.55l-10,13.55h-4.58v-20.85Z"/>
    <path class="cls-1" d="M258.19,67.27l4.34,6.31,4.34-6.31h5.69l-6.98,9.98,7.55,10.87h-5.72l-4.88-6.91-4.82,6.91h-5.6l7.49-10.66-7.01-10.18h5.6Z"/>
  </g>
</svg>